<svg width="26" height="28" viewBox="0 0 26 28" fill="none" xmlns="http://www.w3.org/2000/svg">
<path d="M15.6667 27H10.3333M21 9.66669C21 7.54496 20.1572 5.51012 18.6569 4.00983C17.1566 2.50954 15.1217 1.66669 13 1.66669C10.8783 1.66669 8.84344 2.50954 7.34315 4.00983C5.84286 5.51012 5 7.54496 5 9.66669C5 13.7869 3.96063 16.608 2.79956 18.4739C1.82017 20.0479 1.33048 20.8348 1.34844 21.0544C1.36832 21.2975 1.41982 21.3902 1.61571 21.5355C1.79262 21.6667 2.59013 21.6667 4.18514 21.6667H21.8149C23.4099 21.6667 24.2074 21.6667 24.3843 21.5355C24.5802 21.3902 24.6317 21.2975 24.6516 21.0544C24.6695 20.8348 24.1798 20.0479 23.2005 18.4739C22.0394 16.608 21 13.7869 21 9.66669Z" stroke="black" stroke-width="2" stroke-linecap="round" stroke-linejoin="round"/>
</svg>
